<mxfile host="65bd71144e">
    <diagram id="dLlubgwYXh7pxlaa3Xrq" name="Page-1">
        <mxGraphModel dx="1664" dy="1126" grid="1" gridSize="10" guides="1" tooltips="1" connect="1" arrows="1" fold="1" page="1" pageScale="1" pageWidth="850" pageHeight="1100" math="0" shadow="0">
            <root>
                <mxCell id="0"/>
                <mxCell id="1" parent="0"/>
                <mxCell id="28" value="&lt;br&gt;" style="swimlane;childLayout=stackLayout;resizeParent=1;resizeParentMax=0;horizontal=1;startSize=20;horizontalStack=0;html=1;" parent="1" vertex="1">
                    <mxGeometry x="15" y="41" width="1660" height="640" as="geometry"/>
                </mxCell>
                <mxCell id="29" value="Input" style="swimlane;startSize=20;horizontal=0;html=1;" parent="28" vertex="1">
                    <mxGeometry y="20" width="1660" height="130" as="geometry"/>
                </mxCell>
                <mxCell id="51" value="should the pipeline keep iterating?" style="rhombus;whiteSpace=wrap;html=1;fillColor=#60a917;fontColor=#ffffff;strokeColor=#2D7600;" parent="29" vertex="1">
                    <mxGeometry x="1287" y="6" width="99" height="97" as="geometry"/>
                </mxCell>
                <mxCell id="31" value="Prozessor" style="swimlane;startSize=20;horizontal=0;html=1;" parent="28" vertex="1">
                    <mxGeometry y="150" width="1660" height="260" as="geometry"/>
                </mxCell>
                <mxCell id="30" value="Pipeline" style="swimlane;startSize=20;horizontal=0;html=1;" parent="28" vertex="1">
                    <mxGeometry y="410" width="1660" height="230" as="geometry"/>
                </mxCell>
                <mxCell id="73" value="" style="edgeStyle=none;html=1;entryX=0;entryY=0.5;entryDx=0;entryDy=0;" edge="1" parent="30" source="48" target="71">
                    <mxGeometry relative="1" as="geometry">
                        <mxPoint x="255" y="139" as="targetPoint"/>
                    </mxGeometry>
                </mxCell>
                <mxCell id="48" value="PipelineManager created and MultiprocessingPipeline started" style="ellipse;whiteSpace=wrap;html=1;rounded=1;shadow=0;glass=0;sketch=0;fillColor=#60a917;fontColor=#ffffff;strokeColor=#2D7600;" parent="30" vertex="1">
                    <mxGeometry x="40" y="90" width="135" height="89" as="geometry"/>
                </mxCell>
                <mxCell id="71" value="Start Pipeline with run() Method" style="rounded=0;whiteSpace=wrap;html=1;fillColor=#60a917;fontColor=#ffffff;strokeColor=#2D7600;" vertex="1" parent="30">
                    <mxGeometry x="305" y="109" width="120" height="60" as="geometry"/>
                </mxCell>
                <mxCell id="32" value="Output" style="swimlane;startSize=20;horizontal=0;html=1;" parent="1" vertex="1">
                    <mxGeometry x="15" y="681" width="1657" height="212" as="geometry"/>
                </mxCell>
                <mxCell id="49" value="shutdown() terminates the pipeline" style="ellipse;whiteSpace=wrap;html=1;rounded=1;shadow=0;glass=0;sketch=0;" parent="32" vertex="1">
                    <mxGeometry x="1484" y="-424" width="120" height="80" as="geometry"/>
                </mxCell>
                <mxCell id="61" value="failed event is stored in list of outputs" style="whiteSpace=wrap;html=1;fillColor=#a20025;strokeColor=#6F0000;fontColor=#ffffff;" parent="32" vertex="1">
                    <mxGeometry x="608" y="106" width="120" height="60" as="geometry"/>
                </mxCell>
                <mxCell id="36" value="" style="edgeStyle=orthogonalEdgeStyle;html=1;entryX=0;entryY=0.5;entryDx=0;entryDy=0;exitX=1;exitY=0.5;exitDx=0;exitDy=0;" parent="1" source="71" target="34" edge="1">
                    <mxGeometry relative="1" as="geometry">
                        <mxPoint x="185" y="512" as="sourcePoint"/>
                        <mxPoint x="187" y="111" as="targetPoint"/>
                    </mxGeometry>
                </mxCell>
                <mxCell id="38" value="" style="edgeStyle=orthogonalEdgeStyle;html=1;" parent="1" source="34" target="37" edge="1">
                    <mxGeometry relative="1" as="geometry"/>
                </mxCell>
                <mxCell id="34" value="gets the event to be processed from the given Input Connector" style="whiteSpace=wrap;html=1;fillColor=#60a917;fontColor=#ffffff;strokeColor=#2D7600;" parent="1" vertex="1">
                    <mxGeometry x="552" y="85" width="120" height="60" as="geometry"/>
                </mxCell>
                <mxCell id="41" value="" style="edgeStyle=orthogonalEdgeStyle;html=1;entryX=0.5;entryY=0;entryDx=0;entryDy=0;" parent="1" source="37" target="39" edge="1">
                    <mxGeometry relative="1" as="geometry">
                        <mxPoint x="701" y="401" as="targetPoint"/>
                    </mxGeometry>
                </mxCell>
                <mxCell id="37" value="processes event through different processors in pipeline" style="whiteSpace=wrap;html=1;fillColor=#60a917;fontColor=#ffffff;strokeColor=#2D7600;" parent="1" vertex="1">
                    <mxGeometry x="641" y="261" width="120" height="60" as="geometry"/>
                </mxCell>
                <mxCell id="44" value="" style="edgeStyle=orthogonalEdgeStyle;html=1;" parent="1" source="39" target="43" edge="1">
                    <mxGeometry relative="1" as="geometry"/>
                </mxCell>
                <mxCell id="39" value="get matching generic and specific rules from each processor" style="whiteSpace=wrap;html=1;fillColor=#60a917;fontColor=#ffffff;strokeColor=#2D7600;" parent="1" vertex="1">
                    <mxGeometry x="735" y="500" width="120" height="60" as="geometry"/>
                </mxCell>
                <mxCell id="47" value="" style="edgeStyle=orthogonalEdgeStyle;html=1;entryX=0.5;entryY=0;entryDx=0;entryDy=0;" parent="1" source="43" target="45" edge="1">
                    <mxGeometry relative="1" as="geometry">
                        <mxPoint x="1010" y="640" as="targetPoint"/>
                    </mxGeometry>
                </mxCell>
                <mxCell id="43" value="applies the rules to the given event to process it" style="whiteSpace=wrap;html=1;fillColor=#60a917;fontColor=#ffffff;strokeColor=#2D7600;" parent="1" vertex="1">
                    <mxGeometry x="950" y="500" width="120" height="60" as="geometry"/>
                </mxCell>
                <mxCell id="54" value="" style="edgeStyle=orthogonalEdgeStyle;html=1;entryX=0.5;entryY=1;entryDx=0;entryDy=0;" parent="1" source="45" edge="1">
                    <mxGeometry relative="1" as="geometry">
                        <mxPoint x="1351.5" y="163" as="targetPoint"/>
                    </mxGeometry>
                </mxCell>
                <mxCell id="62" value="" style="edgeStyle=orthogonalEdgeStyle;html=1;endArrow=none;endFill=0;startArrow=classic;startFill=1;dashed=1;dashPattern=8 8;entryX=1;entryY=0.5;entryDx=0;entryDy=0;" parent="1" source="51" target="61" edge="1">
                    <mxGeometry relative="1" as="geometry">
                        <mxPoint x="1351.5" y="163" as="sourcePoint"/>
                        <Array as="points">
                            <mxPoint x="1351" y="821"/>
                            <mxPoint x="743" y="821"/>
                        </Array>
                        <mxPoint x="760" y="821" as="targetPoint"/>
                    </mxGeometry>
                </mxCell>
                <mxCell id="45" value="stores the event in the given Output Connector" style="whiteSpace=wrap;html=1;fillColor=#60a917;fontColor=#ffffff;strokeColor=#2D7600;" parent="1" vertex="1">
                    <mxGeometry x="1099" y="728" width="120" height="60" as="geometry"/>
                </mxCell>
                <mxCell id="56" value="" style="edgeStyle=orthogonalEdgeStyle;html=1;entryX=1;entryY=0.5;entryDx=0;entryDy=0;exitX=0;exitY=0.5;exitDx=0;exitDy=0;" parent="1" source="51" target="34" edge="1">
                    <mxGeometry relative="1" as="geometry">
                        <mxPoint x="1232.5" y="122.5" as="targetPoint"/>
                        <mxPoint x="1302" y="114.5" as="sourcePoint"/>
                    </mxGeometry>
                </mxCell>
                <mxCell id="57" value="yes" style="edgeLabel;html=1;align=center;verticalAlign=middle;resizable=0;points=[];" parent="56" vertex="1" connectable="0">
                    <mxGeometry x="-0.2355" relative="1" as="geometry">
                        <mxPoint as="offset"/>
                    </mxGeometry>
                </mxCell>
                <mxCell id="59" value="" style="edgeStyle=orthogonalEdgeStyle;html=1;entryX=0;entryY=0.5;entryDx=0;entryDy=0;" parent="1" source="51" target="69" edge="1">
                    <mxGeometry relative="1" as="geometry">
                        <mxPoint x="1497" y="115" as="targetPoint"/>
                        <mxPoint x="1401" y="114.5" as="sourcePoint"/>
                    </mxGeometry>
                </mxCell>
                <mxCell id="60" value="no" style="edgeLabel;html=1;align=center;verticalAlign=middle;resizable=0;points=[];" parent="59" vertex="1" connectable="0">
                    <mxGeometry x="-0.2782" y="-1" relative="1" as="geometry">
                        <mxPoint as="offset"/>
                    </mxGeometry>
                </mxCell>
                <mxCell id="64" value="" style="html=1;startArrow=classic;startFill=1;endArrow=none;endFill=0;entryX=0.156;entryY=1;entryDx=0;entryDy=0;entryPerimeter=0;exitX=0.25;exitY=0;exitDx=0;exitDy=0;dashed=1;dashPattern=8 8;" parent="1" source="61" edge="1">
                    <mxGeometry relative="1" as="geometry">
                        <mxPoint x="655.2" y="784.74" as="sourcePoint"/>
                        <mxPoint x="654.7200000000003" y="321" as="targetPoint"/>
                    </mxGeometry>
                </mxCell>
                <mxCell id="68" value="ProcessingCriticalError" style="edgeLabel;html=1;align=center;verticalAlign=middle;resizable=0;points=[];" parent="64" vertex="1" connectable="0">
                    <mxGeometry x="-0.1504" y="1" relative="1" as="geometry">
                        <mxPoint y="1" as="offset"/>
                    </mxGeometry>
                </mxCell>
                <mxCell id="66" value="" style="edgeStyle=orthogonalEdgeStyle;html=1;startArrow=classic;startFill=1;endArrow=none;endFill=0;entryX=0.25;entryY=1;entryDx=0;entryDy=0;exitX=0;exitY=0.5;exitDx=0;exitDy=0;dashed=1;dashPattern=8 8;" parent="1" source="61" edge="1">
                    <mxGeometry relative="1" as="geometry">
                        <mxPoint x="615" y="816" as="sourcePoint"/>
                        <mxPoint x="578" y="144" as="targetPoint"/>
                    </mxGeometry>
                </mxCell>
                <mxCell id="67" value="InputParsingError" style="edgeLabel;html=1;align=center;verticalAlign=middle;resizable=0;points=[];" parent="66" vertex="1" connectable="0">
                    <mxGeometry x="-0.0503" y="5" relative="1" as="geometry">
                        <mxPoint y="-135" as="offset"/>
                    </mxGeometry>
                </mxCell>
                <mxCell id="70" value="" style="edgeStyle=none;html=1;" parent="1" source="69" target="49" edge="1">
                    <mxGeometry relative="1" as="geometry"/>
                </mxCell>
                <mxCell id="69" value="&amp;nbsp;called after processing batch of one or more records" style="rounded=0;whiteSpace=wrap;html=1;fillColor=#60a917;fontColor=#ffffff;strokeColor=#2D7600;" parent="1" vertex="1">
                    <mxGeometry x="1497" y="726" width="120" height="60" as="geometry"/>
                </mxCell>
            </root>
        </mxGraphModel>
    </diagram>
</mxfile>